<svg width="1938" height="2101" viewBox="0 0 1938 2101" fill="none" xmlns="http://www.w3.org/2000/svg">
<line y1="-25" x2="905.301" y2="-25" transform="matrix(-0.716303 0.697789 -0.724674 -0.689092 703.635 0)" stroke="white" stroke-width="50"/>
<line y1="-25" x2="729.921" y2="-25" transform="matrix(0.660139 0.751143 -0.775509 0.631337 0.000244141 1552.73)" stroke="white" stroke-width="50"/>
<line y1="-25" x2="588.856" y2="-25" transform="matrix(0.416787 0.909004 -0.920421 0.390928 55.1653 631.708)" stroke="white" stroke-width="50"/>
<line y1="-25" x2="724.798" y2="-25" transform="matrix(0.983227 0.182386 -0.196353 0.980533 756.548 1742.35)" stroke="white" stroke-width="50"/>
<line y1="-25" x2="696.111" y2="-25" transform="matrix(-0.574139 0.818758 -0.83861 -0.544733 1822.7 1274.25)" stroke="white" stroke-width="50"/>
<line y1="-25" x2="593.232" y2="-25" transform="matrix(-0.821733 -0.569873 0.599314 -0.800514 1191.11 338.067)" stroke="white" stroke-width="50"/>
<line y1="-25" x2="468.794" y2="-25" transform="matrix(-0.946198 0.32359 -0.346341 -0.938109 1582.9 179.869)" stroke="white" stroke-width="50"/>
<line y1="-25" x2="596.891" y2="-25" transform="matrix(0.601676 0.79874 -0.820086 0.57224 1537.86 211.292)" stroke="white" stroke-width="50"/>
<line y1="-25" x2="460.879" y2="-25" transform="matrix(-0.869621 0.493719 -0.522559 -0.852603 1868.85 641.46)" stroke="white" stroke-width="50"/>
<line y1="-25" x2="591.158" y2="-25" transform="matrix(0.676071 0.736836 -0.761966 0.647617 1427.53 903.679)" stroke="white" stroke-width="50"/>
<line y1="-25" x2="532.81" y2="-25" transform="matrix(-0.564166 0.825662 -0.844967 -0.534818 300.593 1112.8)" stroke="white" stroke-width="50"/>
<line y1="-25" x2="453.151" y2="-25" transform="matrix(-0.64098 0.767557 -0.790965 -0.611861 767.806 1689.25)" stroke="white" stroke-width="50"/>
</svg>
