<svg width="1014" height="1084" viewBox="0 0 1014 1084" fill="none" xmlns="http://www.w3.org/2000/svg">
<line y1="-25" x2="459.65" y2="-25" transform="matrix(-0.713948 0.700199 -0.722349 -0.691528 356.083 0)" stroke="white" stroke-width="50"/>
<line x1="18.792" y1="774.602" x2="275.792" y2="1067.51" stroke="white" stroke-width="50"/>
<line y1="-25" x2="299.664" y2="-25" transform="matrix(0.414469 0.910063 -0.919468 0.393165 27.917 321.846)" stroke="white" stroke-width="50"/>
<line y1="-25" x2="366.876" y2="-25" transform="matrix(0.983005 0.183578 -0.195084 0.980787 382.86 887.699)" stroke="white" stroke-width="50"/>
<line x1="945.008" y1="640.989" x2="724.008" y2="935.989" stroke="white" stroke-width="50"/>
<line x1="607.275" y1="194.896" x2="342.358" y2="20.8959" stroke="white" stroke-width="50"/>
<line y1="-25" x2="237.407" y2="-25" transform="matrix(-0.945526 0.325547 -0.344291 -0.938863 801.044 91.6406)" stroke="white" stroke-width="50"/>
<line x1="785.06" y1="105.822" x2="979.06" y2="334.375" stroke="white" stroke-width="50"/>
<line x1="1001.28" y1="325.777" x2="755.211" y2="464.522" stroke="white" stroke-width="50"/>
<line x1="743.487" y1="446.17" x2="943.163" y2="665.506" stroke="white" stroke-width="50"/>
<line x1="173.123" y1="564.373" x2="21.1227" y2="804.463" stroke="white" stroke-width="50"/>
<line x1="412.541" y1="858.593" x2="254.541" y2="1056.59" stroke="white" stroke-width="50"/>
</svg>
