<svg width="602" height="627" viewBox="0 0 602 627" fill="none" xmlns="http://www.w3.org/2000/svg">
<line y1="-25" x2="260.715" y2="-25" transform="matrix(-0.721497 0.692417 -0.729797 -0.683664 204.107 5)" stroke="white" stroke-width="50"/>
<line y1="-25" x2="232.545" y2="-25" transform="matrix(0.642078 0.766639 -0.790538 0.612412 0 448.722)" stroke="white" stroke-width="50"/>
<line y1="-25" x2="168.721" y2="-25" transform="matrix(0.421955 0.906617 -0.9225 0.385996 16.002 185.523)" stroke="white" stroke-width="50"/>
<line y1="-25" x2="231.548" y2="-25" transform="matrix(0.979501 0.201437 -0.217037 0.976163 219.456 502.91)" stroke="white" stroke-width="50"/>
<line y1="-25" x2="221.094" y2="-25" transform="matrix(-0.530792 0.847502 -0.865292 -0.501269 530.141 344.639)" stroke="white" stroke-width="50"/>
<path d="M357.761 120.364L191.733 21.2834" stroke="white" stroke-width="50"/>
<line y1="-25" x2="151.855" y2="-25" transform="matrix(-0.933595 0.358331 -0.383268 -0.923637 472.261 45.3372)" stroke="white" stroke-width="50"/>
<line y1="-25" x2="171.508" y2="-25" transform="matrix(0.607412 0.794387 -0.824071 0.566487 446.096 65.3809)" stroke="white" stroke-width="50"/>
<line y1="-25" x2="172.726" y2="-25" transform="matrix(-0.86119 0.508283 -0.537911 -0.843002 574.599 165.542)" stroke="white" stroke-width="50"/>
<line y1="-25" x2="162.827" y2="-25" transform="matrix(0.638093 0.769959 -0.793651 0.608373 426.125 262.352)" stroke="white" stroke-width="50"/>
<line y1="-25" x2="174.346" y2="-25" transform="matrix(-0.5533 0.832982 -0.852033 -0.523487 96.4653 303.495)" stroke="white" stroke-width="50"/>
<line y1="-25" x2="152.01" y2="-25" transform="matrix(-0.601101 0.799173 -0.820882 -0.571098 229.839 465.651)" stroke="white" stroke-width="50"/>
</svg>
